<svg width="2848" height="940" viewBox="0 0 2848 940" fill="none" xmlns="http://www.w3.org/2000/svg">
<path d="M1680.75 8.00293C1691.01 64.4272 1753.44 132.406 1783.06 175.879C1881.95 321.001 1993.69 449.914 2117.37 574.314C2142.67 599.761 2222.27 705.445 2268.67 705.445C2294.56 705.445 2252.17 670.209 2251.38 669.42" stroke="white" stroke-width="15" stroke-linecap="round"/>
<path d="M474.635 604.575C546.94 519.874 660.531 478.83 761.393 438.86C985.26 350.147 1219.07 280.311 1453.07 224.152C1711.83 162.05 1975.46 120.541 2239.85 91.5806C2393.96 74.7008 2585.74 35.7346 2739.88 77.1707C2943.75 131.976 2788.32 318.996 2685.12 384.103C2510 494.586 2303.8 562.968 2110.16 631.954C1867.95 718.249 1623.18 803.336 1377.42 879.084C1323.73 895.632 962.077 1006.95 1145.42 844.501C1398.26 620.467 1754.71 543.636 2053.24 400.674C2060.93 396.993 2168.53 351.323 2081.34 376.898C1870.43 438.765 1656.98 492.572 1444.42 548.376C966.378 673.881 484.532 785.799 7.75244 915.83" stroke="white" stroke-width="15" stroke-linecap="round"/>
</svg>
